<svg width="472" height="90" viewBox="0 0 472 90" fill="none" xmlns="http://www.w3.org/2000/svg">
<path d="M58.9383 176.575H24.1559V89.8666H0.461426V61.6361H24.155V41.5481C24.155 17.7438 34.6347 0.671509 69.323 0.671509C76.6596 0.671509 88.1777 2.15028 88.1777 2.15028V28.3638H76.0799C63.7531 28.3638 58.9402 32.1134 58.9402 42.4795V61.6361H87.7162L85.1537 89.8666H58.9393L58.9383 176.575ZM138.748 59.3801C138.241 59.3801 137.719 59.3986 137.203 59.4115C104.951 59.4115 90.1947 83.6718 90.1947 118.11C90.1947 161.493 109.336 178.856 137.455 178.856C153.544 178.856 164.114 172.084 170.538 159.447V176.587H203.621V61.6481H170.538V79.3241C165.292 67.9518 154.427 59.5149 138.748 59.3801ZM147.16 86.5398C160.706 86.5398 168.836 95.9884 168.836 112.06L168.868 128.475C168.868 139.308 162.152 151.98 147.16 151.98C124.11 151.98 124.726 127.092 124.726 118.803C124.726 90.9198 137.007 86.5398 147.16 86.5398ZM523.716 59.4115C555.969 59.4115 570.958 83.6718 570.958 118.11C570.958 161.493 551.816 178.856 523.696 178.856C507.608 178.856 495.715 172.085 489.29 159.447V176.587L456.624 176.574V4.16628L491.307 1.14135V77.7669C496.313 64.361 512.763 59.4115 523.716 59.4115ZM513.992 86.5398C500.446 86.5398 491.307 95.9884 491.307 112.06L491.275 128.475C491.255 139.308 497.604 151.98 513.992 151.98C537.041 151.98 536.425 127.092 536.425 118.803C536.425 90.9198 524.146 86.5398 513.992 86.5398ZM389.917 59.5066C353.335 59.5066 334.022 79.4515 334.022 114.896V121.481C334.022 167.484 361.143 179.328 393.477 179.328C424.905 179.328 439.13 170.538 439.13 170.538L432.64 147.129C432.64 147.129 415.907 154.248 397.635 154.248C378.694 154.248 370.548 149.421 368.46 131.218H441.903V112.438C441.903 73.9897 420.229 59.5057 389.916 59.5057L389.917 59.5066ZM390.798 82.9472C403.461 82.9472 411.666 90.7121 411.216 108.72H368.523C369.264 89.7669 378.112 82.9472 390.798 82.9472ZM640.116 59.3487C602.549 59.3487 582.772 80.5186 582.772 118.456C582.772 170.508 616.863 178.887 640.178 178.887C674.31 178.887 697.018 160.512 697.018 118.929C697.018 75.6484 671.485 59.3487 640.116 59.3487ZM639.643 86.634C656.161 86.634 662.707 98.9967 662.707 113.069V125.168C662.707 142.215 653.548 152.076 639.58 152.076C626.517 152.076 617.336 142.852 617.336 125.168V113.069C617.336 94.2087 628.261 86.634 639.643 86.634ZM766.114 59.3487C728.547 59.3487 708.77 80.5186 708.77 118.456C708.77 170.508 742.861 178.887 766.176 178.887C800.307 178.887 823.016 160.512 823.016 118.929C823.016 75.6484 797.483 59.3487 766.114 59.3487ZM765.641 86.634C782.16 86.634 788.704 98.9967 788.704 113.069V125.168C788.704 142.215 779.545 152.076 765.578 152.076C752.515 152.076 743.334 142.852 743.334 125.168V113.069C743.334 94.2087 754.259 86.634 765.641 86.634ZM836.123 176.575V4.16628L870.907 1.14228V116.701L905.417 61.637H942.152L906.152 118.668L943.538 176.575H906.699L870.907 120.347V176.575H836.123Z" fill="#1877F2"/>
<path d="M227 4.16633V176.575H261.784V120.347L297.577 176.575H334.416L297.029 118.668L333.029 61.6371H296.294L261.784 116.701V1.14233L227 4.16633Z" fill="url(#paint0_linear)"/>
<defs>
<linearGradient id="paint0_linear" x1="263.5" y1="-25" x2="273" y2="207.5" gradientUnits="userSpaceOnUse">
<stop stop-color="#1877F2"/>
<stop offset="1" stop-color="#F21818"/>
</linearGradient>
</defs>
</svg>
